<svg viewBox="0 0 500 500" xmlns="http://www.w3.org/2000/svg"><g data-name="图层 1"><circle cx="250" cy="250" r="84.8" fill="#f7882d" class="fill-f8b62d"></circle><path d="M327.3 250c-.26 31.93-20.27 61.69-50.61 72.59a78.28 78.28 0 0 1-86.62-23.7c-20.52-24.83-22.88-61.14-6.38-88.66s49.76-42.55 81.4-36.08A78.17 78.17 0 0 1 327.3 250c.08 9.65 15.08 9.67 15 0a93.46 93.46 0 0 0-61-86.83c-36.08-13.29-78.52-1.52-102.67 28.34s-27.79 72.65-7.9 105.83c20 33.39 59.57 50.62 97.68 43.11C311.16 332 342 293.16 342.3 250c.08-9.65-14.92-9.66-15 0ZM257.5 131.39v-32c0-9.65-15-9.67-15 0v32c0 9.65 15 9.67 15 0ZM190.69 147.28l-15.98-27.69M197.17 143.49l-16-27.69c-4.83-8.36-17.79-.81-13 7.57l16 27.69c4.83 8.36 17.79.81 13-7.57ZM147.28 190.69l-27.69-15.98M151.06 184.22l-27.69-16c-8.38-4.84-15.94 8.12-7.57 13l27.69 16c8.38 4.84 15.94-8.12 7.57-13ZM131.39 250H99.42M131.39 242.5h-32c-9.65 0-9.67 15 0 15h32c9.65 0 9.67-15 0-15ZM147.28 309.31l-27.69 15.98M143.49 302.83l-27.69 16c-8.36 4.83-.81 17.79 7.57 13l27.69-16c8.36-4.83.81-17.79-7.57-13ZM190.69 352.72l-15.98 27.69M184.22 348.94l-16 27.69c-4.84 8.38 8.12 15.94 13 7.57l16-27.69c4.84-8.38-8.12-15.94-13-7.57ZM250 368.61v31.97M242.5 368.61v32c0 9.65 15 9.67 15 0v-32c0-9.65-15-9.67-15 0ZM309.31 352.72l15.98 27.69M302.83 356.51l16 27.69c4.83 8.36 17.79.81 13-7.57l-16-27.69c-4.83-8.36-17.79-.81-13 7.57ZM352.72 309.31l27.69 15.98M348.94 315.78l27.69 16c8.38 4.84 15.94-8.12 7.57-13l-27.69-16c-8.38-4.84-15.94 8.12-7.57 13ZM368.61 250h31.97M368.61 257.5h32c9.65 0 9.67-15 0-15h-32c-9.65 0-9.67 15 0 15ZM352.72 190.69l27.69-15.98M356.51 197.17l27.69-16c8.36-4.83.81-17.79-7.57-13l-27.69 16c-8.36 4.83-.81 17.79 7.57 13ZM309.31 147.28l15.98-27.69M315.78 151.06l16-27.69c4.84-8.38-8.12-15.94-13-7.57l-16 27.69c-4.84 8.38 8.12 15.94 13 7.57Z" fill="#131324" class="fill-231815"></path><text transform="translate(-3.4 -30.77)" font-size="161.72px" fill="#ffffff" stroke="#131324" stroke-miterlimit="10" font-family="DINAlternate-Bold,DIN Alternate" font-weight="700" class="fill-ffffff stroke-231815"></text></g></svg>